<svg xmlns="http://www.w3.org/2000/svg" width="388.895" height="110.288" viewBox="0 0 388.895 110.288">
  <g id="Group_12" data-name="Group 12" transform="translate(-69.771 -600)">
    <g id="Group_1" data-name="Group 1" transform="translate(-754.774 69.042)">
      <rect id="Rectangle_4" data-name="Rectangle 4" width="31.194" height="31.194" transform="translate(868.659 553.016) rotate(45)" fill="#0f50ad" opacity="0.6"/>
      <path id="Rectangle_11" data-name="Rectangle 11" d="M0,0H31.194V31.194H4a4,4,0,0,1-4-4Z" transform="translate(846.602 575.073) rotate(45)" fill="#0f50ad" opacity="0.8"/>
      <rect id="Rectangle_7" data-name="Rectangle 7" width="31.194" height="31.194" transform="translate(912.774 553.016) rotate(45)" fill="#0f50ad" opacity="0.6"/>
      <rect id="Rectangle_9" data-name="Rectangle 9" width="31.194" height="31.194" transform="translate(890.716 575.073) rotate(45)" fill="#0f50ad" opacity="0.8"/>
      <path id="Rectangle_13" data-name="Rectangle 13" d="M0,0H31.194V27.194a4,4,0,0,1-4,4H0Z" transform="translate(912.774 597.131) rotate(45)" fill="#0f50ad"/>
      <path id="Rectangle_14" data-name="Rectangle 14" d="M0,0H31.194V27.194a4,4,0,0,1-4,4H0Z" transform="translate(868.659 597.131) rotate(45)" fill="#0f50ad"/>
      <path id="Rectangle_15" data-name="Rectangle 15" d="M0,0H31.194V27.194a4,4,0,0,1-4,4H0Z" transform="translate(956.889 597.131) rotate(45)" fill="#0f50ad"/>
      <rect id="Rectangle_10" data-name="Rectangle 10" width="31.194" height="31.194" transform="translate(934.831 575.073) rotate(45)" fill="#0f50ad" opacity="0.8"/>
      <path id="Rectangle_12" data-name="Rectangle 12" d="M0,0H27.194a4,4,0,0,1,4,4V31.194H0Z" transform="translate(978.946 575.073) rotate(45)" fill="#0f50ad" opacity="0.8"/>
      <rect id="Rectangle_8" data-name="Rectangle 8" width="31.194" height="31.194" transform="translate(956.889 553.016) rotate(45)" fill="#0f50ad" opacity="0.6"/>
      <path id="Rectangle_5" data-name="Rectangle 5" d="M3,0H31.194V31.194H0V3A3,3,0,0,1,3,0Z" transform="translate(890.716 530.958) rotate(45)" fill="#0f50ad" opacity="0.4"/>
      <path id="Rectangle_6" data-name="Rectangle 6" d="M3,0H31.194V31.194H0V3A3,3,0,0,1,3,0Z" transform="translate(934.831 530.958) rotate(45)" fill="#0f50ad" opacity="0.4"/>
    </g>
    <path id="Path_19" data-name="Path 19" d="M-66.675-25.41A12.266,12.266,0,0,0-62.405-35c0-8.47-6.93-14-15.47-14h-19.18V0h20.58c8.75,0,15.82-5.67,15.82-14.35A12.653,12.653,0,0,0-66.675-25.41Zm-11.2-13.09a4.1,4.1,0,0,1,4.27,4.34,4.135,4.135,0,0,1-4.27,4.34h-7.98V-38.5Zm1.4,28h-9.38v-9.38h9.38a4.428,4.428,0,0,1,4.62,4.69A4.428,4.428,0,0,1-76.475-10.5ZM-55.405,0h10.5V-51.1h-10.5Zm35,.98A18.345,18.345,0,0,0-1.855-17.5a18.345,18.345,0,0,0-18.55-18.48A18.345,18.345,0,0,0-38.955-17.5,18.345,18.345,0,0,0-20.405.98Zm0-10.22a7.85,7.85,0,0,1-8.05-8.26,7.85,7.85,0,0,1,8.05-8.26,7.85,7.85,0,0,1,8.05,8.26A7.85,7.85,0,0,1-20.405-9.24ZM20.895.98A18.345,18.345,0,0,0,39.445-17.5a18.345,18.345,0,0,0-18.55-18.48A18.345,18.345,0,0,0,2.345-17.5,18.345,18.345,0,0,0,20.895.98Zm0-10.22a7.85,7.85,0,0,1-8.05-8.26,7.85,7.85,0,0,1,8.05-8.26,7.85,7.85,0,0,1,8.05,8.26A7.85,7.85,0,0,1,20.895-9.24ZM84.6-35.98c-4.97,0-8.19,1.82-10.15,4.62a10.415,10.415,0,0,0-9.17-4.62c-4.69,0-7.77,1.82-9.38,4.2V-35h-10.5V0h10.5V-19.74c0-4.13,1.96-6.58,5.46-6.58,3.36,0,5.04,2.24,5.04,5.74V0h10.5V-19.74c0-4.13,1.96-6.58,5.46-6.58,3.36,0,5.04,2.24,5.04,5.74V0H97.9V-21.49C97.9-30.24,92.645-35.98,84.6-35.98Z" transform="translate(360.771 691)"/>
  </g>
</svg>
